{"title":"The Flash 2014 S01E02 Fastest Man Alive 720p HDTV X265","uid":11226022,"size":348051265,"categoryP":"video","categoryS":"hd___tv_shows","magnet":"?xt=urn:btih:f186f72fb8563497a65986bd4792ecb800e8a767&amp;dn=The+Flash+2014+S01E02+Fastest+Man+Alive+720p+HDTV+X265&amp;tr=udp%3A%2F%2Ftracker.openbittorrent.com%3A80&amp;tr=udp%3A%2F%2Fopen.demonii.com%3A1337&amp;tr=udp%3A%2F%2Ftracker.coppersurfer.tk%3A6969&amp;tr=udp%3A%2F%2Fexodus.desync.com%3A6969","seeders":1,"leechers":0,"uploader":"atm50","files":-1,"time":1413441381,"description":"Barry escorts Iris to a university gathering honoring scientist Simon Stagg. When six gunmen storm the event, Barry changes into The Flash and tries to stop them. While he does save a man's life, he passes out before he can capture the robbers, which frustrates him. As Dr. Wells, Caitlin and Cisco scramble to find out what's wrong with Barry, Joe comes down hard on Barry for taking the law into his own hands and risking his life. Barry realizes that it wasn't six gunmen but a metahuman named Danton Black, who can make multiples of himself. Meanwhile, Iris becomes even more intrigued by the &quot;red streak.&quot;\n\nSource: The Flash 2014 S01E02 720p HDTV X264-DIMENSION [eztv]\n\nFormat                         : MPEG-4\nFile size                      : 332 MiB\nDuration                       : 42mn 5s\nOverall bit rate               : 1 102 Kbps\n\nVideo\n\nFormat                         : HEVC [X265]\nBit rate                       : 844 Kbps\nMaximum bit rate               : 8 076 Kbps\nWidth                          : 1 280 pixels\nHeight                         : 720 pixels\nDisplay aspect ratio           : 16:9\nFrame rate                     : 23.976 fps\nStream size                    : 254 MiB (77%)\n\nAudio\n\nFormat                         : AC-3\nBit rate                       : 256 Kbps\nChannel(s)                     : 6 channels (5.1)\nSampling rate                  : 48.0 KHz\nBit depth                      : 16 bits\nCompression mode               : Lossy\nStream size                    : 77.1 MiB (23%)\n\nSubtitles: English (External)","torrent":{"xt":"urn:btih:f186f72fb8563497a65986bd4792ecb800e8a767","amp;dn":"The+Flash+2014+S01E02+Fastest+Man+Alive+720p+HDTV+X265","amp;tr":["udp%3A%2F%2Ftracker.openbittorrent.com%3A80","udp%3A%2F%2Fopen.demonii.com%3A1337","udp%3A%2F%2Ftracker.coppersurfer.tk%3A6969","udp%3A%2F%2Fexodus.desync.com%3A6969"],"infoHash":"f186f72fb8563497a65986bd4792ecb800e8a767","infoHashBuffer":{"type":"Buffer","data":[241,134,247,47,184,86,52,151,166,89,134,189,71,146,236,184,0,232,167,103]},"announce":[],"urlList":[]}}